<?xml version="1.0" encoding="UTF-8"?>
<svg id="Layer_1" xmlns="http://www.w3.org/2000/svg" version="1.1" viewBox="0 0 512.8 512.7">
  <!-- Generator: Adobe Illustrator 30.5.1, SVG Export Plug-In . SVG Version: 2.1.4 Build 3)  -->
  <path d="M512.5,244.9C506.3,104.5,386.9-6.1,244.9.3,102.7,6.7-6.5,127.9.3,268.6c6.8,140.8,126.6,250.1,267.4,243.9,141.1-6.3,251-126.2,244.8-267.5ZM171.1,447.7h-16.7s0-383.8,0-383.8h16.7s0,383.8,0,383.8ZM297.8,72.5c35.4,16.7,54.9,55.1,50.5,93.6-4.2,36.2-30.3,69.4-68.4,78.6,29.9-16.2,50.5-45.2,54.7-78.2,4.6-36.4-9.1-69.8-36.8-94ZM401.8,428.3h-31.4s0-28.5,0-28.5h-28s0-28.5,0-28.5h-28.8s0-30.2,0-30.2h-28.2s0-28.8,0-28.8h-28.6s0-37.8,0-37.8h9.7c0,0,0,28.3,0,28.3h28.3s0,28.8,0,28.8h28.4s0,30,0,30h28.6c0,0,0,28.6,0,28.6h28.2s-.3,28.5-.3,28.5h22s0,9.7,0,9.7Z"/>
</svg>