<?xml version="1.0" encoding="UTF-8"?>
<svg id="Layer_1" xmlns="http://www.w3.org/2000/svg" version="1.1" viewBox="0 0 516.8 516.7">
  <!-- Generator: Adobe Illustrator 30.5.1, SVG Export Plug-In . SVG Version: 2.1.4 Build 3)  -->
  <defs>
    <style>
      .st0 {
        fill: #ffd710;
      }

      .st0, .st1 {
        display: none;
      }

      .st2 {
        fill: #fff;
      }

      .st3 {
        stroke: #fff;
        stroke-miterlimit: 10;
        stroke-width: 4px;
      }
    </style>
  </defs>
  <rect class="st0" x="-28.6" y="-18.7" width="588" height="557"/>
  <path class="st3" d="M246.9,2.3c142-6.4,261.4,104.3,267.6,244.7,6.2,141.3-103.6,261.3-244.8,267.5C128.9,520.7,9.1,411.5,2.3,270.6-4.5,129.9,104.7,8.7,246.9,2.3Z"/>
  <path class="st1" d="M247.6,2.7c142-6.4,261.4,104.3,267.6,244.7,6.2,141.3-103.6,261.3-244.8,267.5C129.7,521.1,9.8,411.9,3,271-3.7,130.4,105.4,9.1,247.6,2.7ZM173.9,450.2V66.3s-16.7,0-16.7,0v383.8s16.7,0,16.7,0ZM282.7,247.1c38-9.3,64.2-42.4,68.4-78.6,4.4-38.5-15.1-76.8-50.5-93.6,27.7,24.2,41.5,57.6,36.8,94-4.2,33-24.8,62-54.7,78.2ZM404.6,421h-22s.3-28.5.3-28.5h-28.2s0-28.5,0-28.5h-28.6c0,0,0-30,0-30h-28.4s0-28.8,0-28.8h-28.3s0-28.4,0-28.4h-9.7c0,0,0,37.9,0,37.9h28.6s0,28.8,0,28.8h28.2s0,30.2,0,30.2h28.8s0,28.6,0,28.6h28s0,28.4,0,28.4h31.4s0-9.7,0-9.7Z"/>
  <polygon class="st2" points="173.9 450.2 157.2 450.1 157.2 66.3 173.9 66.3 173.9 450.2"/>
  <polygon class="st2" points="404.6 421 404.6 430.7 373.2 430.7 373.2 402.3 345.2 402.3 345.2 373.7 316.4 373.7 316.4 343.5 288.2 343.5 288.2 314.7 259.6 314.7 259.6 276.9 269.3 276.9 269.4 305.3 297.6 305.3 297.6 334.1 326.1 334.1 326.1 364 354.6 364.1 354.6 392.6 382.9 392.6 382.6 421.1 404.6 421"/>
  <path class="st2" d="M282.7,247.1c29.9-16.2,50.5-45.2,54.7-78.2,4.6-36.4-9.1-69.8-36.8-94,35.4,16.7,54.9,55.1,50.5,93.6-4.2,36.2-30.3,69.4-68.4,78.6Z"/>
</svg>